<?xml version="1.0" standalone="no"?>
<!DOCTYPE svg PUBLIC "-//W3C//DTD SVG 20010904//EN"
 "http://www.w3.org/TR/2001/REC-SVG-20010904/DTD/svg10.dtd">
<svg version="1.0" xmlns="http://www.w3.org/2000/svg"
 width="512.000000pt" height="512.000000pt" viewBox="0 0 512.000000 512.000000"
 preserveAspectRatio="xMidYMid meet">

<g transform="translate(0.000000,512.000000) scale(0.100000,-0.100000)"
fill="#000000" stroke="none">
<path d="M277 4010 c-105 -27 -197 -104 -244 -205 -24 -51 -28 -73 -28 -145 1
-159 -95 -52 1194 -1343 1299 -1301 1199 -1212 1361 -1212 163 1 57 -94 1357
1208 1293 1295 1197 1188 1198 1347 0 72 -4 94 -28 146 -36 77 -104 145 -182
181 -51 23 -73 28 -145 27 -159 0 -69 79 -1197 -1048 l-1003 -1001 -1002 1001
c-892 890 -1009 1003 -1056 1023 -61 25 -168 35 -225 21z"/>
</g>
</svg>
